<svg xmlns="http://www.w3.org/2000/svg" viewBox="0 0 190 190"><defs><style>.cls-1,.cls-2{fill:none;stroke-linecap:round;stroke-linejoin:round;}.cls-1{stroke:#6adc7b;stroke-width:5px;}.cls-2{stroke:#fff;stroke-width:2px;}</style></defs><g id="Layer_1" data-name="Layer 1"><path class="cls-1" d="M27.26,90.68s-5,68.08,63.35,57.28C90.61,148,97.17,88.16,27.26,90.68Z"/><path class="cls-1" d="M50,114.84a450.06,450.06,0,0,1,35.53,30.81"/><path class="cls-1" d="M162.71,75.68s-68.12-4.56-56.85,63.74C105.86,139.42,165.71,145.57,162.71,75.68Z"/><path class="cls-1" d="M106.14,138.31s14.53-27.3,34.36-39"/><path class="cls-1" d="M62.85,40.88S45.41,90.52,98.45,96.24C98.45,96.24,115.36,53.08,62.85,40.88Z"/><path class="cls-1" d="M75.72,64.35s14.44,17.1,20.51,30.86"/><circle class="cls-2" cx="95" cy="96" r="90.72"/><circle class="cls-1" cx="95" cy="95" r="90.72"/></g></svg>